<?xml version="1.0" encoding="utf-8"?>
<svg xmlns="http://www.w3.org/2000/svg" xmlns:xlink="http://www.w3.org/1999/xlink" width="600" height="400" viewBox="0 0 2400 1600">
<defs>
  <clipPath id="clip170">
    <rect x="0" y="0" width="2400" height="1600"/>
  </clipPath>
</defs>
<path clip-path="url(#clip170)" d="M0 1600 L2400 1600 L2400 0 L0 0  Z" fill="#ffffff" fill-rule="evenodd" fill-opacity="1"/>
<defs>
  <clipPath id="clip171">
    <rect x="480" y="0" width="1681" height="1600"/>
  </clipPath>
</defs>
<path clip-path="url(#clip170)" d="M249.542 1423.18 L2352.76 1423.18 L2352.76 47.2441 L249.542 47.2441  Z" fill="#ffffff" fill-rule="evenodd" fill-opacity="1"/>
<defs>
  <clipPath id="clip172">
    <rect x="249" y="47" width="2104" height="1377"/>
  </clipPath>
</defs>
<polyline clip-path="url(#clip172)" style="stroke:#000000; stroke-linecap:round; stroke-linejoin:round; stroke-width:2; stroke-opacity:0.1; fill:none" points="309.067,1423.18 309.067,47.2441 "/>
<polyline clip-path="url(#clip172)" style="stroke:#000000; stroke-linecap:round; stroke-linejoin:round; stroke-width:2; stroke-opacity:0.1; fill:none" points="744.98,1423.18 744.98,47.2441 "/>
<polyline clip-path="url(#clip172)" style="stroke:#000000; stroke-linecap:round; stroke-linejoin:round; stroke-width:2; stroke-opacity:0.1; fill:none" points="1180.89,1423.18 1180.89,47.2441 "/>
<polyline clip-path="url(#clip172)" style="stroke:#000000; stroke-linecap:round; stroke-linejoin:round; stroke-width:2; stroke-opacity:0.1; fill:none" points="1616.8,1423.18 1616.8,47.2441 "/>
<polyline clip-path="url(#clip172)" style="stroke:#000000; stroke-linecap:round; stroke-linejoin:round; stroke-width:2; stroke-opacity:0.1; fill:none" points="2052.72,1423.18 2052.72,47.2441 "/>
<polyline clip-path="url(#clip170)" style="stroke:#000000; stroke-linecap:round; stroke-linejoin:round; stroke-width:4; stroke-opacity:1; fill:none" points="249.542,1423.18 2352.76,1423.18 "/>
<polyline clip-path="url(#clip170)" style="stroke:#000000; stroke-linecap:round; stroke-linejoin:round; stroke-width:4; stroke-opacity:1; fill:none" points="309.067,1423.18 309.067,1404.28 "/>
<polyline clip-path="url(#clip170)" style="stroke:#000000; stroke-linecap:round; stroke-linejoin:round; stroke-width:4; stroke-opacity:1; fill:none" points="744.98,1423.18 744.98,1404.28 "/>
<polyline clip-path="url(#clip170)" style="stroke:#000000; stroke-linecap:round; stroke-linejoin:round; stroke-width:4; stroke-opacity:1; fill:none" points="1180.89,1423.18 1180.89,1404.28 "/>
<polyline clip-path="url(#clip170)" style="stroke:#000000; stroke-linecap:round; stroke-linejoin:round; stroke-width:4; stroke-opacity:1; fill:none" points="1616.8,1423.18 1616.8,1404.28 "/>
<polyline clip-path="url(#clip170)" style="stroke:#000000; stroke-linecap:round; stroke-linejoin:round; stroke-width:4; stroke-opacity:1; fill:none" points="2052.72,1423.18 2052.72,1404.28 "/>
<path clip-path="url(#clip170)" d="M271.37 1454.1 Q267.759 1454.1 265.931 1457.66 Q264.125 1461.2 264.125 1468.33 Q264.125 1475.44 265.931 1479.01 Q267.759 1482.55 271.37 1482.55 Q275.005 1482.55 276.81 1479.01 Q278.639 1475.44 278.639 1468.33 Q278.639 1461.2 276.81 1457.66 Q275.005 1454.1 271.37 1454.1 M271.37 1450.39 Q277.181 1450.39 280.236 1455 Q283.315 1459.58 283.315 1468.33 Q283.315 1477.06 280.236 1481.67 Q277.181 1486.25 271.37 1486.25 Q265.56 1486.25 262.482 1481.67 Q259.426 1477.06 259.426 1468.33 Q259.426 1459.58 262.482 1455 Q265.56 1450.39 271.37 1450.39 Z" fill="#000000" fill-rule="nonzero" fill-opacity="1" /><path clip-path="url(#clip170)" d="M291.532 1479.7 L296.417 1479.7 L296.417 1485.58 L291.532 1485.58 L291.532 1479.7 Z" fill="#000000" fill-rule="nonzero" fill-opacity="1" /><path clip-path="url(#clip170)" d="M316.602 1454.1 Q312.991 1454.1 311.162 1457.66 Q309.356 1461.2 309.356 1468.33 Q309.356 1475.44 311.162 1479.01 Q312.991 1482.55 316.602 1482.55 Q320.236 1482.55 322.041 1479.01 Q323.87 1475.44 323.87 1468.33 Q323.87 1461.2 322.041 1457.66 Q320.236 1454.1 316.602 1454.1 M316.602 1450.39 Q322.412 1450.39 325.467 1455 Q328.546 1459.58 328.546 1468.33 Q328.546 1477.06 325.467 1481.67 Q322.412 1486.25 316.602 1486.25 Q310.791 1486.25 307.713 1481.67 Q304.657 1477.06 304.657 1468.33 Q304.657 1459.58 307.713 1455 Q310.791 1450.39 316.602 1450.39 Z" fill="#000000" fill-rule="nonzero" fill-opacity="1" /><path clip-path="url(#clip170)" d="M346.764 1454.1 Q343.152 1454.1 341.324 1457.66 Q339.518 1461.2 339.518 1468.33 Q339.518 1475.44 341.324 1479.01 Q343.152 1482.55 346.764 1482.55 Q350.398 1482.55 352.203 1479.01 Q354.032 1475.44 354.032 1468.33 Q354.032 1461.2 352.203 1457.66 Q350.398 1454.1 346.764 1454.1 M346.764 1450.39 Q352.574 1450.39 355.629 1455 Q358.708 1459.58 358.708 1468.33 Q358.708 1477.06 355.629 1481.67 Q352.574 1486.25 346.764 1486.25 Q340.953 1486.25 337.875 1481.67 Q334.819 1477.06 334.819 1468.33 Q334.819 1459.58 337.875 1455 Q340.953 1450.39 346.764 1450.39 Z" fill="#000000" fill-rule="nonzero" fill-opacity="1" /><path clip-path="url(#clip170)" d="M707.781 1454.1 Q704.17 1454.1 702.341 1457.66 Q700.535 1461.2 700.535 1468.33 Q700.535 1475.44 702.341 1479.01 Q704.17 1482.55 707.781 1482.55 Q711.415 1482.55 713.221 1479.01 Q715.049 1475.44 715.049 1468.33 Q715.049 1461.2 713.221 1457.66 Q711.415 1454.1 707.781 1454.1 M707.781 1450.39 Q713.591 1450.39 716.646 1455 Q719.725 1459.58 719.725 1468.33 Q719.725 1477.06 716.646 1481.67 Q713.591 1486.25 707.781 1486.25 Q701.971 1486.25 698.892 1481.67 Q695.836 1477.06 695.836 1468.33 Q695.836 1459.58 698.892 1455 Q701.971 1450.39 707.781 1450.39 Z" fill="#000000" fill-rule="nonzero" fill-opacity="1" /><path clip-path="url(#clip170)" d="M727.943 1479.7 L732.827 1479.7 L732.827 1485.58 L727.943 1485.58 L727.943 1479.7 Z" fill="#000000" fill-rule="nonzero" fill-opacity="1" /><path clip-path="url(#clip170)" d="M747.04 1481.64 L763.359 1481.64 L763.359 1485.58 L741.415 1485.58 L741.415 1481.64 Q744.077 1478.89 748.66 1474.26 Q753.267 1469.61 754.447 1468.27 Q756.693 1465.74 757.572 1464.01 Q758.475 1462.25 758.475 1460.56 Q758.475 1457.8 756.53 1456.07 Q754.609 1454.33 751.507 1454.33 Q749.308 1454.33 746.855 1455.09 Q744.424 1455.86 741.646 1457.41 L741.646 1452.69 Q744.47 1451.55 746.924 1450.97 Q749.378 1450.39 751.415 1450.39 Q756.785 1450.39 759.98 1453.08 Q763.174 1455.77 763.174 1460.26 Q763.174 1462.39 762.364 1464.31 Q761.577 1466.2 759.47 1468.8 Q758.892 1469.47 755.79 1472.69 Q752.688 1475.88 747.04 1481.64 Z" fill="#000000" fill-rule="nonzero" fill-opacity="1" /><path clip-path="url(#clip170)" d="M773.22 1451.02 L791.577 1451.02 L791.577 1454.96 L777.503 1454.96 L777.503 1463.43 Q778.521 1463.08 779.54 1462.92 Q780.558 1462.73 781.577 1462.73 Q787.364 1462.73 790.743 1465.9 Q794.123 1469.08 794.123 1474.49 Q794.123 1480.07 790.651 1483.17 Q787.178 1486.25 780.859 1486.25 Q778.683 1486.25 776.415 1485.88 Q774.169 1485.51 771.762 1484.77 L771.762 1480.07 Q773.845 1481.2 776.067 1481.76 Q778.29 1482.32 780.766 1482.32 Q784.771 1482.32 787.109 1480.21 Q789.447 1478.1 789.447 1474.49 Q789.447 1470.88 787.109 1468.77 Q784.771 1466.67 780.766 1466.67 Q778.891 1466.67 777.016 1467.08 Q775.165 1467.5 773.22 1468.38 L773.22 1451.02 Z" fill="#000000" fill-rule="nonzero" fill-opacity="1" /><path clip-path="url(#clip170)" d="M1143.2 1454.1 Q1139.58 1454.1 1137.76 1457.66 Q1135.95 1461.2 1135.95 1468.33 Q1135.95 1475.44 1137.76 1479.01 Q1139.58 1482.55 1143.2 1482.55 Q1146.83 1482.55 1148.64 1479.01 Q1150.46 1475.44 1150.46 1468.33 Q1150.46 1461.2 1148.64 1457.66 Q1146.83 1454.1 1143.2 1454.1 M1143.2 1450.39 Q1149.01 1450.39 1152.06 1455 Q1155.14 1459.58 1155.14 1468.33 Q1155.14 1477.06 1152.06 1481.67 Q1149.01 1486.25 1143.2 1486.25 Q1137.39 1486.25 1134.31 1481.67 Q1131.25 1477.06 1131.25 1468.33 Q1131.25 1459.58 1134.31 1455 Q1137.39 1450.39 1143.2 1450.39 Z" fill="#000000" fill-rule="nonzero" fill-opacity="1" /><path clip-path="url(#clip170)" d="M1163.36 1479.7 L1168.24 1479.7 L1168.24 1485.58 L1163.36 1485.58 L1163.36 1479.7 Z" fill="#000000" fill-rule="nonzero" fill-opacity="1" /><path clip-path="url(#clip170)" d="M1178.47 1451.02 L1196.83 1451.02 L1196.83 1454.96 L1182.76 1454.96 L1182.76 1463.43 Q1183.77 1463.08 1184.79 1462.92 Q1185.81 1462.73 1186.83 1462.73 Q1192.62 1462.73 1196 1465.9 Q1199.38 1469.08 1199.38 1474.49 Q1199.38 1480.07 1195.9 1483.17 Q1192.43 1486.25 1186.11 1486.25 Q1183.94 1486.25 1181.67 1485.88 Q1179.42 1485.51 1177.02 1484.77 L1177.02 1480.07 Q1179.1 1481.2 1181.32 1481.76 Q1183.54 1482.32 1186.02 1482.32 Q1190.02 1482.32 1192.36 1480.21 Q1194.7 1478.1 1194.7 1474.49 Q1194.7 1470.88 1192.36 1468.77 Q1190.02 1466.67 1186.02 1466.67 Q1184.14 1466.67 1182.27 1467.08 Q1180.42 1467.5 1178.47 1468.38 L1178.47 1451.02 Z" fill="#000000" fill-rule="nonzero" fill-opacity="1" /><path clip-path="url(#clip170)" d="M1218.59 1454.1 Q1214.98 1454.1 1213.15 1457.66 Q1211.34 1461.2 1211.34 1468.33 Q1211.34 1475.44 1213.15 1479.01 Q1214.98 1482.55 1218.59 1482.55 Q1222.22 1482.55 1224.03 1479.01 Q1225.86 1475.44 1225.86 1468.33 Q1225.86 1461.2 1224.03 1457.66 Q1222.22 1454.1 1218.59 1454.1 M1218.59 1450.39 Q1224.4 1450.39 1227.45 1455 Q1230.53 1459.58 1230.53 1468.33 Q1230.53 1477.06 1227.45 1481.67 Q1224.4 1486.25 1218.59 1486.25 Q1212.78 1486.25 1209.7 1481.67 Q1206.64 1477.06 1206.64 1468.33 Q1206.64 1459.58 1209.7 1455 Q1212.78 1450.39 1218.59 1450.39 Z" fill="#000000" fill-rule="nonzero" fill-opacity="1" /><path clip-path="url(#clip170)" d="M1579.61 1454.1 Q1576 1454.1 1574.17 1457.66 Q1572.36 1461.2 1572.36 1468.33 Q1572.36 1475.44 1574.17 1479.01 Q1576 1482.55 1579.61 1482.55 Q1583.24 1482.55 1585.05 1479.01 Q1586.87 1475.44 1586.87 1468.33 Q1586.87 1461.2 1585.05 1457.66 Q1583.24 1454.1 1579.61 1454.1 M1579.61 1450.39 Q1585.42 1450.39 1588.47 1455 Q1591.55 1459.58 1591.55 1468.33 Q1591.55 1477.06 1588.47 1481.67 Q1585.42 1486.25 1579.61 1486.25 Q1573.8 1486.25 1570.72 1481.67 Q1567.66 1477.06 1567.66 1468.33 Q1567.66 1459.58 1570.72 1455 Q1573.8 1450.39 1579.61 1450.39 Z" fill="#000000" fill-rule="nonzero" fill-opacity="1" /><path clip-path="url(#clip170)" d="M1599.77 1479.7 L1604.65 1479.7 L1604.65 1485.58 L1599.77 1485.58 L1599.77 1479.7 Z" fill="#000000" fill-rule="nonzero" fill-opacity="1" /><path clip-path="url(#clip170)" d="M1613.66 1451.02 L1635.88 1451.02 L1635.88 1453.01 L1623.33 1485.58 L1618.45 1485.58 L1630.25 1454.96 L1613.66 1454.96 L1613.66 1451.02 Z" fill="#000000" fill-rule="nonzero" fill-opacity="1" /><path clip-path="url(#clip170)" d="M1645.05 1451.02 L1663.4 1451.02 L1663.4 1454.96 L1649.33 1454.96 L1649.33 1463.43 Q1650.35 1463.08 1651.36 1462.92 Q1652.38 1462.73 1653.4 1462.73 Q1659.19 1462.73 1662.57 1465.9 Q1665.95 1469.08 1665.95 1474.49 Q1665.95 1480.07 1662.48 1483.17 Q1659 1486.25 1652.68 1486.25 Q1650.51 1486.25 1648.24 1485.88 Q1645.99 1485.51 1643.59 1484.77 L1643.59 1480.07 Q1645.67 1481.2 1647.89 1481.76 Q1650.11 1482.32 1652.59 1482.32 Q1656.6 1482.32 1658.93 1480.21 Q1661.27 1478.1 1661.27 1474.49 Q1661.27 1470.88 1658.93 1468.77 Q1656.6 1466.67 1652.59 1466.67 Q1650.72 1466.67 1648.84 1467.08 Q1646.99 1467.5 1645.05 1468.38 L1645.05 1451.02 Z" fill="#000000" fill-rule="nonzero" fill-opacity="1" /><path clip-path="url(#clip170)" d="M2004.79 1481.64 L2012.43 1481.64 L2012.43 1455.28 L2004.12 1456.95 L2004.12 1452.69 L2012.38 1451.02 L2017.06 1451.02 L2017.06 1481.64 L2024.7 1481.64 L2024.7 1485.58 L2004.79 1485.58 L2004.79 1481.64 Z" fill="#000000" fill-rule="nonzero" fill-opacity="1" /><path clip-path="url(#clip170)" d="M2034.14 1479.7 L2039.03 1479.7 L2039.03 1485.58 L2034.14 1485.58 L2034.14 1479.7 Z" fill="#000000" fill-rule="nonzero" fill-opacity="1" /><path clip-path="url(#clip170)" d="M2059.21 1454.1 Q2055.6 1454.1 2053.77 1457.66 Q2051.97 1461.2 2051.97 1468.33 Q2051.97 1475.44 2053.77 1479.01 Q2055.6 1482.55 2059.21 1482.55 Q2062.84 1482.55 2064.65 1479.01 Q2066.48 1475.44 2066.48 1468.33 Q2066.48 1461.2 2064.65 1457.66 Q2062.84 1454.1 2059.21 1454.1 M2059.21 1450.39 Q2065.02 1450.39 2068.08 1455 Q2071.16 1459.58 2071.16 1468.33 Q2071.16 1477.06 2068.08 1481.67 Q2065.02 1486.25 2059.21 1486.25 Q2053.4 1486.25 2050.32 1481.67 Q2047.27 1477.06 2047.27 1468.33 Q2047.27 1459.58 2050.32 1455 Q2053.4 1450.39 2059.21 1450.39 Z" fill="#000000" fill-rule="nonzero" fill-opacity="1" /><path clip-path="url(#clip170)" d="M2089.37 1454.1 Q2085.76 1454.1 2083.93 1457.66 Q2082.13 1461.2 2082.13 1468.33 Q2082.13 1475.44 2083.93 1479.01 Q2085.76 1482.55 2089.37 1482.55 Q2093.01 1482.55 2094.81 1479.01 Q2096.64 1475.44 2096.64 1468.33 Q2096.64 1461.2 2094.81 1457.66 Q2093.01 1454.1 2089.37 1454.1 M2089.37 1450.39 Q2095.18 1450.39 2098.24 1455 Q2101.32 1459.58 2101.32 1468.33 Q2101.32 1477.06 2098.24 1481.67 Q2095.18 1486.25 2089.37 1486.25 Q2083.56 1486.25 2080.48 1481.67 Q2077.43 1477.06 2077.43 1468.33 Q2077.43 1459.58 2080.48 1455 Q2083.56 1450.39 2089.37 1450.39 Z" fill="#000000" fill-rule="nonzero" fill-opacity="1" /><path clip-path="url(#clip170)" d="M1304.52 1550.12 Q1297.43 1550.12 1294.69 1551.75 Q1291.95 1553.37 1291.95 1557.29 Q1291.95 1560.4 1293.99 1562.25 Q1296.06 1564.07 1299.59 1564.07 Q1304.46 1564.07 1307.39 1560.63 Q1310.35 1557.16 1310.35 1551.43 L1310.35 1550.12 L1304.52 1550.12 M1316.2 1547.71 L1316.2 1568.04 L1310.35 1568.04 L1310.35 1562.63 Q1308.34 1565.88 1305.35 1567.44 Q1302.36 1568.97 1298.03 1568.97 Q1292.56 1568.97 1289.31 1565.91 Q1286.09 1562.82 1286.09 1557.67 Q1286.09 1551.65 1290.1 1548.6 Q1294.15 1545.54 1302.14 1545.54 L1310.35 1545.54 L1310.35 1544.97 Q1310.35 1540.93 1307.67 1538.73 Q1305.03 1536.5 1300.23 1536.5 Q1297.17 1536.5 1294.27 1537.23 Q1291.38 1537.97 1288.7 1539.43 L1288.7 1534.02 Q1291.92 1532.78 1294.94 1532.17 Q1297.97 1531.54 1300.83 1531.54 Q1308.57 1531.54 1312.38 1535.55 Q1316.2 1539.56 1316.2 1547.71 Z" fill="#000000" fill-rule="nonzero" fill-opacity="1" /><polyline clip-path="url(#clip172)" style="stroke:#000000; stroke-linecap:round; stroke-linejoin:round; stroke-width:2; stroke-opacity:0.1; fill:none" points="249.542,1384.24 2352.76,1384.24 "/>
<polyline clip-path="url(#clip172)" style="stroke:#000000; stroke-linecap:round; stroke-linejoin:round; stroke-width:2; stroke-opacity:0.1; fill:none" points="249.542,1059.69 2352.76,1059.69 "/>
<polyline clip-path="url(#clip172)" style="stroke:#000000; stroke-linecap:round; stroke-linejoin:round; stroke-width:2; stroke-opacity:0.1; fill:none" points="249.542,735.147 2352.76,735.147 "/>
<polyline clip-path="url(#clip172)" style="stroke:#000000; stroke-linecap:round; stroke-linejoin:round; stroke-width:2; stroke-opacity:0.1; fill:none" points="249.542,410.601 2352.76,410.601 "/>
<polyline clip-path="url(#clip172)" style="stroke:#000000; stroke-linecap:round; stroke-linejoin:round; stroke-width:2; stroke-opacity:0.1; fill:none" points="249.542,86.0559 2352.76,86.0559 "/>
<polyline clip-path="url(#clip170)" style="stroke:#000000; stroke-linecap:round; stroke-linejoin:round; stroke-width:4; stroke-opacity:1; fill:none" points="249.542,1423.18 249.542,47.2441 "/>
<polyline clip-path="url(#clip170)" style="stroke:#000000; stroke-linecap:round; stroke-linejoin:round; stroke-width:4; stroke-opacity:1; fill:none" points="249.542,1384.24 268.44,1384.24 "/>
<polyline clip-path="url(#clip170)" style="stroke:#000000; stroke-linecap:round; stroke-linejoin:round; stroke-width:4; stroke-opacity:1; fill:none" points="249.542,1059.69 268.44,1059.69 "/>
<polyline clip-path="url(#clip170)" style="stroke:#000000; stroke-linecap:round; stroke-linejoin:round; stroke-width:4; stroke-opacity:1; fill:none" points="249.542,735.147 268.44,735.147 "/>
<polyline clip-path="url(#clip170)" style="stroke:#000000; stroke-linecap:round; stroke-linejoin:round; stroke-width:4; stroke-opacity:1; fill:none" points="249.542,410.601 268.44,410.601 "/>
<polyline clip-path="url(#clip170)" style="stroke:#000000; stroke-linecap:round; stroke-linejoin:round; stroke-width:4; stroke-opacity:1; fill:none" points="249.542,86.0559 268.44,86.0559 "/>
<path clip-path="url(#clip170)" d="M126.205 1370.04 Q122.593 1370.04 120.765 1373.6 Q118.959 1377.14 118.959 1384.27 Q118.959 1391.38 120.765 1394.94 Q122.593 1398.49 126.205 1398.49 Q129.839 1398.49 131.644 1394.94 Q133.473 1391.38 133.473 1384.27 Q133.473 1377.14 131.644 1373.6 Q129.839 1370.04 126.205 1370.04 M126.205 1366.33 Q132.015 1366.33 135.07 1370.94 Q138.149 1375.52 138.149 1384.27 Q138.149 1393 135.07 1397.61 Q132.015 1402.19 126.205 1402.19 Q120.394 1402.19 117.316 1397.61 Q114.26 1393 114.26 1384.27 Q114.26 1375.52 117.316 1370.94 Q120.394 1366.33 126.205 1366.33 Z" fill="#000000" fill-rule="nonzero" fill-opacity="1" /><path clip-path="url(#clip170)" d="M146.366 1395.64 L151.251 1395.64 L151.251 1401.52 L146.366 1401.52 L146.366 1395.64 Z" fill="#000000" fill-rule="nonzero" fill-opacity="1" /><path clip-path="url(#clip170)" d="M171.436 1370.04 Q167.825 1370.04 165.996 1373.6 Q164.19 1377.14 164.19 1384.27 Q164.19 1391.38 165.996 1394.94 Q167.825 1398.49 171.436 1398.49 Q175.07 1398.49 176.876 1394.94 Q178.704 1391.38 178.704 1384.27 Q178.704 1377.14 176.876 1373.6 Q175.07 1370.04 171.436 1370.04 M171.436 1366.33 Q177.246 1366.33 180.301 1370.94 Q183.38 1375.52 183.38 1384.27 Q183.38 1393 180.301 1397.61 Q177.246 1402.19 171.436 1402.19 Q165.626 1402.19 162.547 1397.61 Q159.491 1393 159.491 1384.27 Q159.491 1375.52 162.547 1370.94 Q165.626 1366.33 171.436 1366.33 Z" fill="#000000" fill-rule="nonzero" fill-opacity="1" /><path clip-path="url(#clip170)" d="M201.598 1370.04 Q197.987 1370.04 196.158 1373.6 Q194.352 1377.14 194.352 1384.27 Q194.352 1391.38 196.158 1394.94 Q197.987 1398.49 201.598 1398.49 Q205.232 1398.49 207.037 1394.94 Q208.866 1391.38 208.866 1384.27 Q208.866 1377.14 207.037 1373.6 Q205.232 1370.04 201.598 1370.04 M201.598 1366.33 Q207.408 1366.33 210.463 1370.94 Q213.542 1375.52 213.542 1384.27 Q213.542 1393 210.463 1397.61 Q207.408 1402.19 201.598 1402.19 Q195.787 1402.19 192.709 1397.61 Q189.653 1393 189.653 1384.27 Q189.653 1375.52 192.709 1370.94 Q195.787 1366.33 201.598 1366.33 Z" fill="#000000" fill-rule="nonzero" fill-opacity="1" /><path clip-path="url(#clip170)" d="M127.2 1045.49 Q123.589 1045.49 121.76 1049.06 Q119.955 1052.6 119.955 1059.73 Q119.955 1066.83 121.76 1070.4 Q123.589 1073.94 127.2 1073.94 Q130.834 1073.94 132.64 1070.4 Q134.468 1066.83 134.468 1059.73 Q134.468 1052.6 132.64 1049.06 Q130.834 1045.49 127.2 1045.49 M127.2 1041.79 Q133.01 1041.79 136.066 1046.39 Q139.144 1050.98 139.144 1059.73 Q139.144 1068.45 136.066 1073.06 Q133.01 1077.64 127.2 1077.64 Q121.39 1077.64 118.311 1073.06 Q115.256 1068.45 115.256 1059.73 Q115.256 1050.98 118.311 1046.39 Q121.39 1041.79 127.2 1041.79 Z" fill="#000000" fill-rule="nonzero" fill-opacity="1" /><path clip-path="url(#clip170)" d="M147.362 1071.09 L152.246 1071.09 L152.246 1076.97 L147.362 1076.97 L147.362 1071.09 Z" fill="#000000" fill-rule="nonzero" fill-opacity="1" /><path clip-path="url(#clip170)" d="M166.459 1073.04 L182.778 1073.04 L182.778 1076.97 L160.834 1076.97 L160.834 1073.04 Q163.496 1070.28 168.079 1065.65 Q172.686 1061 173.866 1059.66 Q176.112 1057.13 176.991 1055.4 Q177.894 1053.64 177.894 1051.95 Q177.894 1049.2 175.95 1047.46 Q174.028 1045.72 170.927 1045.72 Q168.727 1045.72 166.274 1046.49 Q163.843 1047.25 161.065 1048.8 L161.065 1044.08 Q163.89 1042.95 166.343 1042.37 Q168.797 1041.79 170.834 1041.79 Q176.204 1041.79 179.399 1044.47 Q182.593 1047.16 182.593 1051.65 Q182.593 1053.78 181.783 1055.7 Q180.996 1057.6 178.889 1060.19 Q178.311 1060.86 175.209 1064.08 Q172.107 1067.27 166.459 1073.04 Z" fill="#000000" fill-rule="nonzero" fill-opacity="1" /><path clip-path="url(#clip170)" d="M192.639 1042.41 L210.996 1042.41 L210.996 1046.35 L196.922 1046.35 L196.922 1054.82 Q197.94 1054.47 198.959 1054.31 Q199.977 1054.13 200.996 1054.13 Q206.783 1054.13 210.162 1057.3 Q213.542 1060.47 213.542 1065.88 Q213.542 1071.46 210.07 1074.57 Q206.598 1077.64 200.278 1077.64 Q198.102 1077.64 195.834 1077.27 Q193.588 1076.9 191.181 1076.16 L191.181 1071.46 Q193.264 1072.6 195.487 1073.15 Q197.709 1073.71 200.186 1073.71 Q204.19 1073.71 206.528 1071.6 Q208.866 1069.5 208.866 1065.88 Q208.866 1062.27 206.528 1060.17 Q204.19 1058.06 200.186 1058.06 Q198.311 1058.06 196.436 1058.48 Q194.584 1058.89 192.639 1059.77 L192.639 1042.41 Z" fill="#000000" fill-rule="nonzero" fill-opacity="1" /><path clip-path="url(#clip170)" d="M126.205 720.946 Q122.593 720.946 120.765 724.511 Q118.959 728.052 118.959 735.182 Q118.959 742.288 120.765 745.853 Q122.593 749.395 126.205 749.395 Q129.839 749.395 131.644 745.853 Q133.473 742.288 133.473 735.182 Q133.473 728.052 131.644 724.511 Q129.839 720.946 126.205 720.946 M126.205 717.242 Q132.015 717.242 135.07 721.849 Q138.149 726.432 138.149 735.182 Q138.149 743.909 135.07 748.515 Q132.015 753.098 126.205 753.098 Q120.394 753.098 117.316 748.515 Q114.26 743.909 114.26 735.182 Q114.26 726.432 117.316 721.849 Q120.394 717.242 126.205 717.242 Z" fill="#000000" fill-rule="nonzero" fill-opacity="1" /><path clip-path="url(#clip170)" d="M146.366 746.547 L151.251 746.547 L151.251 752.427 L146.366 752.427 L146.366 746.547 Z" fill="#000000" fill-rule="nonzero" fill-opacity="1" /><path clip-path="url(#clip170)" d="M161.482 717.867 L179.839 717.867 L179.839 721.802 L165.765 721.802 L165.765 730.274 Q166.783 729.927 167.802 729.765 Q168.82 729.58 169.839 729.58 Q175.626 729.58 179.005 732.751 Q182.385 735.923 182.385 741.339 Q182.385 746.918 178.913 750.02 Q175.44 753.098 169.121 753.098 Q166.945 753.098 164.677 752.728 Q162.431 752.358 160.024 751.617 L160.024 746.918 Q162.107 748.052 164.329 748.608 Q166.552 749.163 169.028 749.163 Q173.033 749.163 175.371 747.057 Q177.709 744.95 177.709 741.339 Q177.709 737.728 175.371 735.622 Q173.033 733.515 169.028 733.515 Q167.153 733.515 165.278 733.932 Q163.427 734.348 161.482 735.228 L161.482 717.867 Z" fill="#000000" fill-rule="nonzero" fill-opacity="1" /><path clip-path="url(#clip170)" d="M201.598 720.946 Q197.987 720.946 196.158 724.511 Q194.352 728.052 194.352 735.182 Q194.352 742.288 196.158 745.853 Q197.987 749.395 201.598 749.395 Q205.232 749.395 207.037 745.853 Q208.866 742.288 208.866 735.182 Q208.866 728.052 207.037 724.511 Q205.232 720.946 201.598 720.946 M201.598 717.242 Q207.408 717.242 210.463 721.849 Q213.542 726.432 213.542 735.182 Q213.542 743.909 210.463 748.515 Q207.408 753.098 201.598 753.098 Q195.787 753.098 192.709 748.515 Q189.653 743.909 189.653 735.182 Q189.653 726.432 192.709 721.849 Q195.787 717.242 201.598 717.242 Z" fill="#000000" fill-rule="nonzero" fill-opacity="1" /><path clip-path="url(#clip170)" d="M127.2 396.4 Q123.589 396.4 121.76 399.965 Q119.955 403.507 119.955 410.636 Q119.955 417.743 121.76 421.307 Q123.589 424.849 127.2 424.849 Q130.834 424.849 132.64 421.307 Q134.468 417.743 134.468 410.636 Q134.468 403.507 132.64 399.965 Q130.834 396.4 127.2 396.4 M127.2 392.696 Q133.01 392.696 136.066 397.303 Q139.144 401.886 139.144 410.636 Q139.144 419.363 136.066 423.969 Q133.01 428.553 127.2 428.553 Q121.39 428.553 118.311 423.969 Q115.256 419.363 115.256 410.636 Q115.256 401.886 118.311 397.303 Q121.39 392.696 127.2 392.696 Z" fill="#000000" fill-rule="nonzero" fill-opacity="1" /><path clip-path="url(#clip170)" d="M147.362 422.002 L152.246 422.002 L152.246 427.881 L147.362 427.881 L147.362 422.002 Z" fill="#000000" fill-rule="nonzero" fill-opacity="1" /><path clip-path="url(#clip170)" d="M161.251 393.321 L183.473 393.321 L183.473 395.312 L170.927 427.881 L166.042 427.881 L177.848 397.257 L161.251 397.257 L161.251 393.321 Z" fill="#000000" fill-rule="nonzero" fill-opacity="1" /><path clip-path="url(#clip170)" d="M192.639 393.321 L210.996 393.321 L210.996 397.257 L196.922 397.257 L196.922 405.729 Q197.94 405.382 198.959 405.22 Q199.977 405.034 200.996 405.034 Q206.783 405.034 210.162 408.206 Q213.542 411.377 213.542 416.794 Q213.542 422.372 210.07 425.474 Q206.598 428.553 200.278 428.553 Q198.102 428.553 195.834 428.182 Q193.588 427.812 191.181 427.071 L191.181 422.372 Q193.264 423.506 195.487 424.062 Q197.709 424.618 200.186 424.618 Q204.19 424.618 206.528 422.511 Q208.866 420.405 208.866 416.794 Q208.866 413.182 206.528 411.076 Q204.19 408.97 200.186 408.97 Q198.311 408.97 196.436 409.386 Q194.584 409.803 192.639 410.682 L192.639 393.321 Z" fill="#000000" fill-rule="nonzero" fill-opacity="1" /><path clip-path="url(#clip170)" d="M117.015 99.4007 L124.654 99.4007 L124.654 73.0351 L116.343 74.7017 L116.343 70.4425 L124.607 68.7759 L129.283 68.7759 L129.283 99.4007 L136.922 99.4007 L136.922 103.336 L117.015 103.336 L117.015 99.4007 Z" fill="#000000" fill-rule="nonzero" fill-opacity="1" /><path clip-path="url(#clip170)" d="M146.366 97.4563 L151.251 97.4563 L151.251 103.336 L146.366 103.336 L146.366 97.4563 Z" fill="#000000" fill-rule="nonzero" fill-opacity="1" /><path clip-path="url(#clip170)" d="M171.436 71.8545 Q167.825 71.8545 165.996 75.4193 Q164.19 78.961 164.19 86.0906 Q164.19 93.197 165.996 96.7618 Q167.825 100.303 171.436 100.303 Q175.07 100.303 176.876 96.7618 Q178.704 93.197 178.704 86.0906 Q178.704 78.961 176.876 75.4193 Q175.07 71.8545 171.436 71.8545 M171.436 68.1509 Q177.246 68.1509 180.301 72.7573 Q183.38 77.3406 183.38 86.0906 Q183.38 94.8174 180.301 99.4238 Q177.246 104.007 171.436 104.007 Q165.626 104.007 162.547 99.4238 Q159.491 94.8174 159.491 86.0906 Q159.491 77.3406 162.547 72.7573 Q165.626 68.1509 171.436 68.1509 Z" fill="#000000" fill-rule="nonzero" fill-opacity="1" /><path clip-path="url(#clip170)" d="M201.598 71.8545 Q197.987 71.8545 196.158 75.4193 Q194.352 78.961 194.352 86.0906 Q194.352 93.197 196.158 96.7618 Q197.987 100.303 201.598 100.303 Q205.232 100.303 207.037 96.7618 Q208.866 93.197 208.866 86.0906 Q208.866 78.961 207.037 75.4193 Q205.232 71.8545 201.598 71.8545 M201.598 68.1509 Q207.408 68.1509 210.463 72.7573 Q213.542 77.3406 213.542 86.0906 Q213.542 94.8174 210.463 99.4238 Q207.408 104.007 201.598 104.007 Q195.787 104.007 192.709 99.4238 Q189.653 94.8174 189.653 86.0906 Q189.653 77.3406 192.709 72.7573 Q195.787 68.1509 201.598 68.1509 Z" fill="#000000" fill-rule="nonzero" fill-opacity="1" /><path clip-path="url(#clip170)" d="M29.7248 1069.68 L35.1993 1069.68 Q33.8307 1072.16 33.1623 1074.68 Q32.4621 1077.16 32.4621 1079.71 Q32.4621 1085.41 36.0905 1088.56 Q39.6872 1091.71 46.212 1091.71 Q52.7369 1091.71 56.3653 1088.56 Q59.9619 1085.41 59.9619 1079.71 Q59.9619 1077.16 59.2935 1074.68 Q58.5933 1072.16 57.2247 1069.68 L62.6355 1069.68 Q63.7814 1072.13 64.3543 1074.77 Q64.9272 1077.38 64.9272 1080.34 Q64.9272 1088.4 59.8664 1093.14 Q54.8057 1097.88 46.212 1097.88 Q37.491 1097.88 32.4939 1093.11 Q27.4968 1088.3 27.4968 1079.96 Q27.4968 1077.26 28.0697 1074.68 Q28.6108 1072.1 29.7248 1069.68 Z" fill="#000000" fill-rule="nonzero" fill-opacity="1" /><path clip-path="url(#clip170)" d="M49.9359 1060.1 L28.3562 1060.1 L28.3562 1054.25 L49.7131 1054.25 Q54.7739 1054.25 57.3202 1052.27 Q59.8346 1050.3 59.8346 1046.35 Q59.8346 1041.61 56.8109 1038.87 Q53.7872 1036.1 48.5673 1036.1 L28.3562 1036.1 L28.3562 1030.25 L64.0042 1030.25 L64.0042 1036.1 L58.5296 1036.1 Q61.7762 1038.24 63.3676 1041.07 Q64.9272 1043.87 64.9272 1047.59 Q64.9272 1053.74 61.1078 1056.92 Q57.2883 1060.1 49.9359 1060.1 M27.4968 1045.37 L27.4968 1045.37 Z" fill="#000000" fill-rule="nonzero" fill-opacity="1" /><path clip-path="url(#clip170)" d="M35.1993 990.429 Q31.2526 988.233 29.3747 985.177 Q27.4968 982.122 27.4968 977.984 Q27.4968 972.414 31.4117 969.39 Q35.2948 966.367 42.4881 966.367 L64.0042 966.367 L64.0042 972.255 L42.679 972.255 Q37.5546 972.255 35.072 974.069 Q32.5894 975.883 32.5894 979.607 Q32.5894 984.159 35.6131 986.801 Q38.6368 989.442 43.8567 989.442 L64.0042 989.442 L64.0042 995.331 L42.679 995.331 Q37.5228 995.331 35.072 997.145 Q32.5894 998.959 32.5894 1002.75 Q32.5894 1007.23 35.6449 1009.88 Q38.6686 1012.52 43.8567 1012.52 L64.0042 1012.52 L64.0042 1018.41 L28.3562 1018.41 L28.3562 1012.52 L33.8944 1012.52 Q30.616 1010.51 29.0564 1007.71 Q27.4968 1004.91 27.4968 1001.06 Q27.4968 997.177 29.4702 994.471 Q31.4436 991.734 35.1993 990.429 Z" fill="#000000" fill-rule="nonzero" fill-opacity="1" /><path clip-path="url(#clip170)" d="M49.9359 955.29 L28.3562 955.29 L28.3562 949.434 L49.7131 949.434 Q54.7739 949.434 57.3202 947.461 Q59.8346 945.487 59.8346 941.54 Q59.8346 936.798 56.8109 934.061 Q53.7872 931.292 48.5673 931.292 L28.3562 931.292 L28.3562 925.435 L64.0042 925.435 L64.0042 931.292 L58.5296 931.292 Q61.7762 933.424 63.3676 936.257 Q64.9272 939.058 64.9272 942.782 Q64.9272 948.925 61.1078 952.108 Q57.2883 955.29 49.9359 955.29 M27.4968 940.554 L27.4968 940.554 Z" fill="#000000" fill-rule="nonzero" fill-opacity="1" /><path clip-path="url(#clip170)" d="M14.479 913.372 L14.479 907.516 L64.0042 907.516 L64.0042 913.372 L14.479 913.372 Z" fill="#000000" fill-rule="nonzero" fill-opacity="1" /><path clip-path="url(#clip170)" d="M46.0847 879.061 Q46.0847 886.159 47.7079 888.896 Q49.3312 891.633 53.2461 891.633 Q56.3653 891.633 58.2114 889.596 Q60.0256 887.527 60.0256 883.994 Q60.0256 879.125 56.5881 876.196 Q53.1188 873.236 47.3897 873.236 L46.0847 873.236 L46.0847 879.061 M43.6657 867.38 L64.0042 867.38 L64.0042 873.236 L58.5933 873.236 Q61.8398 875.242 63.3994 878.233 Q64.9272 881.225 64.9272 885.554 Q64.9272 891.029 61.8716 894.275 Q58.7843 897.49 53.6281 897.49 Q47.6125 897.49 44.5569 893.479 Q41.5014 889.437 41.5014 881.448 L41.5014 873.236 L40.9285 873.236 Q36.8862 873.236 34.6901 875.91 Q32.4621 878.552 32.4621 883.358 Q32.4621 886.413 33.1941 889.31 Q33.9262 892.206 35.3903 894.88 L29.9795 894.88 Q28.7381 891.665 28.1334 888.641 Q27.4968 885.618 27.4968 882.753 Q27.4968 875.019 31.5072 871.199 Q35.5176 867.38 43.6657 867.38 Z" fill="#000000" fill-rule="nonzero" fill-opacity="1" /><path clip-path="url(#clip170)" d="M18.2347 849.524 L28.3562 849.524 L28.3562 837.461 L32.9077 837.461 L32.9077 849.524 L52.2594 849.524 Q56.6199 849.524 57.8613 848.346 Q59.1026 847.137 59.1026 843.477 L59.1026 837.461 L64.0042 837.461 L64.0042 843.477 Q64.0042 850.256 61.4897 852.834 Q58.9434 855.412 52.2594 855.412 L32.9077 855.412 L32.9077 859.709 L28.3562 859.709 L28.3562 855.412 L18.2347 855.412 L18.2347 849.524 Z" fill="#000000" fill-rule="nonzero" fill-opacity="1" /><path clip-path="url(#clip170)" d="M28.3562 829.759 L28.3562 823.902 L64.0042 823.902 L64.0042 829.759 L28.3562 829.759 M14.479 829.759 L14.479 823.902 L21.895 823.902 L21.895 829.759 L14.479 829.759 Z" fill="#000000" fill-rule="nonzero" fill-opacity="1" /><path clip-path="url(#clip170)" d="M28.3562 815.85 L28.3562 809.643 L58.275 798.503 L28.3562 787.363 L28.3562 781.156 L64.0042 794.524 L64.0042 802.482 L28.3562 815.85 Z" fill="#000000" fill-rule="nonzero" fill-opacity="1" /><path clip-path="url(#clip170)" d="M44.7161 742.58 L47.5806 742.58 L47.5806 769.507 Q53.6281 769.125 56.8109 765.879 Q59.9619 762.6 59.9619 756.776 Q59.9619 753.402 59.1344 750.251 Q58.3069 747.068 56.6518 743.949 L62.1899 743.949 Q63.5267 747.1 64.227 750.41 Q64.9272 753.72 64.9272 757.126 Q64.9272 765.656 59.9619 770.653 Q54.9967 775.618 46.5303 775.618 Q37.7774 775.618 32.6531 770.908 Q27.4968 766.165 27.4968 758.144 Q27.4968 750.951 32.1438 746.782 Q36.7589 742.58 44.7161 742.58 M42.9973 748.437 Q38.1912 748.5 35.3266 751.142 Q32.4621 753.752 32.4621 758.081 Q32.4621 762.982 35.2312 765.942 Q38.0002 768.871 43.0292 769.316 L42.9973 748.437 Z" fill="#000000" fill-rule="nonzero" fill-opacity="1" /><path clip-path="url(#clip170)" d="M58.657 706.582 L77.5631 706.582 L77.5631 712.47 L28.3562 712.47 L28.3562 706.582 L33.7671 706.582 Q30.5842 704.736 29.0564 701.935 Q27.4968 699.102 27.4968 695.188 Q27.4968 688.695 32.6531 684.652 Q37.8093 680.578 46.212 680.578 Q54.6147 680.578 59.771 684.652 Q64.9272 688.695 64.9272 695.188 Q64.9272 699.102 63.3994 701.935 Q61.8398 704.736 58.657 706.582 M46.212 686.658 Q39.7508 686.658 36.0905 689.331 Q32.3984 691.973 32.3984 696.62 Q32.3984 701.267 36.0905 703.94 Q39.7508 706.582 46.212 706.582 Q52.6732 706.582 56.3653 703.94 Q60.0256 701.267 60.0256 696.62 Q60.0256 691.973 56.3653 689.331 Q52.6732 686.658 46.212 686.658 Z" fill="#000000" fill-rule="nonzero" fill-opacity="1" /><path clip-path="url(#clip170)" d="M33.8307 650.214 Q33.2578 651.201 33.0032 652.378 Q32.7167 653.524 32.7167 654.924 Q32.7167 659.89 35.9632 662.563 Q39.1779 665.205 45.2253 665.205 L64.0042 665.205 L64.0042 671.093 L28.3562 671.093 L28.3562 665.205 L33.8944 665.205 Q30.6479 663.359 29.0883 660.399 Q27.4968 657.439 27.4968 653.206 Q27.4968 652.601 27.5923 651.869 Q27.656 651.137 27.8151 650.246 L33.8307 650.214 Z" fill="#000000" fill-rule="nonzero" fill-opacity="1" /><path clip-path="url(#clip170)" d="M32.4621 631.69 Q32.4621 636.4 36.1542 639.138 Q39.8145 641.875 46.212 641.875 Q52.6095 641.875 56.3017 639.169 Q59.9619 636.432 59.9619 631.69 Q59.9619 627.011 56.2698 624.274 Q52.5777 621.536 46.212 621.536 Q39.8781 621.536 36.186 624.274 Q32.4621 627.011 32.4621 631.69 M27.4968 631.69 Q27.4968 624.051 32.4621 619.69 Q37.4273 615.33 46.212 615.33 Q54.9649 615.33 59.9619 619.69 Q64.9272 624.051 64.9272 631.69 Q64.9272 639.36 59.9619 643.721 Q54.9649 648.05 46.212 648.05 Q37.4273 648.05 32.4621 643.721 Q27.4968 639.36 27.4968 631.69 Z" fill="#000000" fill-rule="nonzero" fill-opacity="1" /><path clip-path="url(#clip170)" d="M46.212 580.032 Q39.7508 580.032 36.0905 582.706 Q32.3984 585.347 32.3984 589.994 Q32.3984 594.641 36.0905 597.315 Q39.7508 599.957 46.212 599.957 Q52.6732 599.957 56.3653 597.315 Q60.0256 594.641 60.0256 589.994 Q60.0256 585.347 56.3653 582.706 Q52.6732 580.032 46.212 580.032 M33.7671 599.957 Q30.5842 598.111 29.0564 595.31 Q27.4968 592.477 27.4968 588.562 Q27.4968 582.069 32.6531 578.027 Q37.8093 573.953 46.212 573.953 Q54.6147 573.953 59.771 578.027 Q64.9272 582.069 64.9272 588.562 Q64.9272 592.477 63.3994 595.31 Q61.8398 598.111 58.657 599.957 L64.0042 599.957 L64.0042 605.845 L14.479 605.845 L14.479 599.957 L33.7671 599.957 Z" fill="#000000" fill-rule="nonzero" fill-opacity="1" /><path clip-path="url(#clip170)" d="M46.0847 548.044 Q46.0847 555.142 47.7079 557.879 Q49.3312 560.617 53.2461 560.617 Q56.3653 560.617 58.2114 558.58 Q60.0256 556.511 60.0256 552.978 Q60.0256 548.108 56.5881 545.18 Q53.1188 542.22 47.3897 542.22 L46.0847 542.22 L46.0847 548.044 M43.6657 536.363 L64.0042 536.363 L64.0042 542.22 L58.5933 542.22 Q61.8398 544.225 63.3994 547.217 Q64.9272 550.209 64.9272 554.537 Q64.9272 560.012 61.8716 563.258 Q58.7843 566.473 53.6281 566.473 Q47.6125 566.473 44.5569 562.463 Q41.5014 558.42 41.5014 550.431 L41.5014 542.22 L40.9285 542.22 Q36.8862 542.22 34.6901 544.893 Q32.4621 547.535 32.4621 552.341 Q32.4621 555.397 33.1941 558.293 Q33.9262 561.189 35.3903 563.863 L29.9795 563.863 Q28.7381 560.648 28.1334 557.625 Q27.4968 554.601 27.4968 551.736 Q27.4968 544.002 31.5072 540.183 Q35.5176 536.363 43.6657 536.363 Z" fill="#000000" fill-rule="nonzero" fill-opacity="1" /><path clip-path="url(#clip170)" d="M46.212 498.71 Q39.7508 498.71 36.0905 501.384 Q32.3984 504.025 32.3984 508.672 Q32.3984 513.319 36.0905 515.993 Q39.7508 518.635 46.212 518.635 Q52.6732 518.635 56.3653 515.993 Q60.0256 513.319 60.0256 508.672 Q60.0256 504.025 56.3653 501.384 Q52.6732 498.71 46.212 498.71 M33.7671 518.635 Q30.5842 516.789 29.0564 513.988 Q27.4968 511.155 27.4968 507.24 Q27.4968 500.747 32.6531 496.705 Q37.8093 492.631 46.212 492.631 Q54.6147 492.631 59.771 496.705 Q64.9272 500.747 64.9272 507.24 Q64.9272 511.155 63.3994 513.988 Q61.8398 516.789 58.657 518.635 L64.0042 518.635 L64.0042 524.523 L14.479 524.523 L14.479 518.635 L33.7671 518.635 Z" fill="#000000" fill-rule="nonzero" fill-opacity="1" /><path clip-path="url(#clip170)" d="M28.3562 482.923 L28.3562 477.067 L64.0042 477.067 L64.0042 482.923 L28.3562 482.923 M14.479 482.923 L14.479 477.067 L21.895 477.067 L21.895 482.923 L14.479 482.923 Z" fill="#000000" fill-rule="nonzero" fill-opacity="1" /><path clip-path="url(#clip170)" d="M14.479 464.813 L14.479 458.956 L64.0042 458.956 L64.0042 464.813 L14.479 464.813 Z" fill="#000000" fill-rule="nonzero" fill-opacity="1" /><path clip-path="url(#clip170)" d="M28.3562 446.702 L28.3562 440.846 L64.0042 440.846 L64.0042 446.702 L28.3562 446.702 M14.479 446.702 L14.479 440.846 L21.895 440.846 L21.895 446.702 L14.479 446.702 Z" fill="#000000" fill-rule="nonzero" fill-opacity="1" /><path clip-path="url(#clip170)" d="M18.2347 422.799 L28.3562 422.799 L28.3562 410.736 L32.9077 410.736 L32.9077 422.799 L52.2594 422.799 Q56.6199 422.799 57.8613 421.621 Q59.1026 420.412 59.1026 416.752 L59.1026 410.736 L64.0042 410.736 L64.0042 416.752 Q64.0042 423.531 61.4897 426.109 Q58.9434 428.687 52.2594 428.687 L32.9077 428.687 L32.9077 432.984 L28.3562 432.984 L28.3562 428.687 L18.2347 428.687 L18.2347 422.799 Z" fill="#000000" fill-rule="nonzero" fill-opacity="1" /><path clip-path="url(#clip170)" d="M67.3143 388.201 Q73.68 390.684 75.6216 393.039 Q77.5631 395.395 77.5631 399.341 L77.5631 404.02 L72.6615 404.02 L72.6615 400.583 Q72.6615 398.164 71.5157 396.827 Q70.3699 395.49 66.1048 393.867 L63.4312 392.817 L28.3562 407.235 L28.3562 401.028 L56.238 389.888 L28.3562 378.748 L28.3562 372.542 L67.3143 388.201 Z" fill="#000000" fill-rule="nonzero" fill-opacity="1" /><polyline clip-path="url(#clip172)" style="stroke:#009af9; stroke-linecap:round; stroke-linejoin:round; stroke-width:4; stroke-opacity:1; fill:none" points="309.067,1384.24 312.296,1384.24 315.526,1384.24 318.755,1384.24 321.985,1384.24 351.846,1384.23 381.708,1383.72 396.638,1382.21 411.569,1378.51 419.034,1375.44 426.5,1371.32 433.965,1366.02 441.43,1359.41 450.403,1349.59 459.376,1337.62 468.349,1323.42 477.321,1306.99 486.294,1288.39 495.267,1267.7 504.239,1245.06 513.212,1220.63 520.799,1198.71 528.385,1175.76 535.971,1151.9 543.557,1127.25 558.73,1076.11 573.903,1023.27 590.384,965.003 606.866,906.777 623.348,849.427 639.83,793.622 655.024,743.99 670.219,696.409 685.414,651.091 700.609,608.171 716.899,564.902 733.189,524.496 749.48,486.925 765.77,452.118 775.207,433.181 784.644,415.115 794.081,397.896 803.518,381.497 822.392,351.051 841.266,323.55 858.039,301.398 874.812,281.232 891.584,262.898 908.357,246.249 923.066,232.924 937.774,220.696 952.482,209.481 967.191,199.2 983.227,188.967 999.263,179.667 1015.3,171.216 1031.34,163.539 1063.6,150.161 1095.86,139.138 1131.53,129.196 1167.2,121.166 1201.14,114.959 1235.08,109.886 1305.66,102.088 1365.07,97.6042 1437.61,93.8476 1504.05,91.5268 1565.42,90.0254 1627.59,88.9401 1697.26,88.0856 1760.39,87.5408 1832.67,87.101 1899.6,86.8155 1965.58,86.6136 2029.64,86.4712 2095.31,86.3644 2167.27,86.28 2271.79,86.1981 2293.23,86.1857 "/>
<polyline clip-path="url(#clip172)" style="stroke:#ffa500; stroke-linecap:round; stroke-linejoin:round; stroke-width:4; stroke-opacity:1; fill:none" points="901.908,2799.12 901.908,-1328.69 "/>
<polyline clip-path="url(#clip172)" style="stroke:#800000; stroke-linecap:round; stroke-linejoin:round; stroke-width:4; stroke-opacity:1; fill:none" stroke-dasharray="16, 10" points="-1853.67,252.46 4455.97,252.46 "/>
<path clip-path="url(#clip172)" d="M-1853.67 382.278 L4455.97 382.278 L4455.97 122.642 L-1853.67 122.642 L-1853.67 382.278  Z" fill="#800000" fill-rule="evenodd" fill-opacity="0.2"/>
<polyline clip-path="url(#clip172)" style="stroke:#000000; stroke-linecap:round; stroke-linejoin:round; stroke-width:0; stroke-opacity:0.2; fill:none" points="-1853.67,382.278 4455.97,382.278 4455.97,122.642 -1853.67,122.642 -1853.67,382.278 "/>
<path clip-path="url(#clip172)" d="M803.058 2799.12 L803.058 -1328.69 L1160.05 -1328.69 L1160.05 2799.12 L803.058 2799.12  Z" fill="#0000ff" fill-rule="evenodd" fill-opacity="0.2"/>
<polyline clip-path="url(#clip172)" style="stroke:#000000; stroke-linecap:round; stroke-linejoin:round; stroke-width:0; stroke-opacity:0.2; fill:none" points="803.058,2799.12 803.058,-1328.69 1160.05,-1328.69 1160.05,2799.12 803.058,2799.12 "/>
<path clip-path="url(#clip170)" d="M1699.02 1377.32 L2282.65 1377.32 L2282.65 1118.12 L1699.02 1118.12  Z" fill="#ffffff" fill-rule="evenodd" fill-opacity="1"/>
<polyline clip-path="url(#clip170)" style="stroke:#000000; stroke-linecap:round; stroke-linejoin:round; stroke-width:4; stroke-opacity:1; fill:none" points="1699.02,1377.32 2282.65,1377.32 2282.65,1118.12 1699.02,1118.12 1699.02,1377.32 "/>
<polyline clip-path="url(#clip170)" style="stroke:#ffa500; stroke-linecap:round; stroke-linejoin:round; stroke-width:4; stroke-opacity:1; fill:none" points="1722.39,1169.96 1862.6,1169.96 "/>
<path clip-path="url(#clip170)" d="M1890.25 1183.35 L1890.25 1197.1 L1885.97 1197.1 L1885.97 1161.31 L1890.25 1161.31 L1890.25 1165.24 Q1891.6 1162.93 1893.63 1161.82 Q1895.69 1160.68 1898.54 1160.68 Q1903.26 1160.68 1906.2 1164.43 Q1909.17 1168.18 1909.17 1174.3 Q1909.17 1180.41 1906.2 1184.16 Q1903.26 1187.91 1898.54 1187.91 Q1895.69 1187.91 1893.63 1186.8 Q1891.6 1185.66 1890.25 1183.35 M1904.74 1174.3 Q1904.74 1169.6 1902.8 1166.93 Q1900.88 1164.25 1897.5 1164.25 Q1894.12 1164.25 1892.18 1166.93 Q1890.25 1169.6 1890.25 1174.3 Q1890.25 1178.99 1892.18 1181.68 Q1894.12 1184.34 1897.5 1184.34 Q1900.88 1184.34 1902.8 1181.68 Q1904.74 1178.99 1904.74 1174.3 Z" fill="#000000" fill-rule="nonzero" fill-opacity="1" /><path clip-path="url(#clip170)" d="M1926.83 1155.75 Q1923.22 1155.75 1921.39 1159.32 Q1919.58 1162.86 1919.58 1169.99 Q1919.58 1177.1 1921.39 1180.66 Q1923.22 1184.2 1926.83 1184.2 Q1930.46 1184.2 1932.27 1180.66 Q1934.1 1177.1 1934.1 1169.99 Q1934.1 1162.86 1932.27 1159.32 Q1930.46 1155.75 1926.83 1155.75 M1926.83 1152.05 Q1932.64 1152.05 1935.69 1156.66 Q1938.77 1161.24 1938.77 1169.99 Q1938.77 1178.72 1935.69 1183.32 Q1932.64 1187.91 1926.83 1187.91 Q1921.02 1187.91 1917.94 1183.32 Q1914.88 1178.72 1914.88 1169.99 Q1914.88 1161.24 1917.94 1156.66 Q1921.02 1152.05 1926.83 1152.05 Z" fill="#000000" fill-rule="nonzero" fill-opacity="1" /><polyline clip-path="url(#clip170)" style="stroke:#800000; stroke-linecap:round; stroke-linejoin:round; stroke-width:4; stroke-opacity:1; fill:none" stroke-dasharray="16, 10" points="1722.39,1221.8 1862.6,1221.8 "/>
<path clip-path="url(#clip170)" d="M1906.48 1214.14 L1906.48 1218.13 Q1904.68 1217.13 1902.85 1216.64 Q1901.04 1216.14 1899.19 1216.14 Q1895.05 1216.14 1892.75 1218.77 Q1890.46 1221.39 1890.46 1226.14 Q1890.46 1230.88 1892.75 1233.52 Q1895.05 1236.14 1899.19 1236.14 Q1901.04 1236.14 1902.85 1235.65 Q1904.68 1235.14 1906.48 1234.14 L1906.48 1238.08 Q1904.7 1238.91 1902.78 1239.33 Q1900.88 1239.75 1898.73 1239.75 Q1892.87 1239.75 1889.42 1236.07 Q1885.97 1232.39 1885.97 1226.14 Q1885.97 1219.79 1889.44 1216.16 Q1892.94 1212.52 1899 1212.52 Q1900.97 1212.52 1902.85 1212.94 Q1904.72 1213.33 1906.48 1214.14 Z" fill="#000000" fill-rule="nonzero" fill-opacity="1" /><path clip-path="url(#clip170)" d="M1930.95 1217.08 L1930.95 1203.06 L1935.21 1203.06 L1935.21 1239.08 L1930.95 1239.08 L1930.95 1235.19 Q1929.61 1237.5 1927.55 1238.64 Q1925.51 1239.75 1922.64 1239.75 Q1917.94 1239.75 1914.98 1236 Q1912.04 1232.25 1912.04 1226.14 Q1912.04 1220.02 1914.98 1216.27 Q1917.94 1212.52 1922.64 1212.52 Q1925.51 1212.52 1927.55 1213.66 Q1929.61 1214.77 1930.95 1217.08 M1916.43 1226.14 Q1916.43 1230.83 1918.36 1233.52 Q1920.3 1236.18 1923.68 1236.18 Q1927.06 1236.18 1929 1233.52 Q1930.95 1230.83 1930.95 1226.14 Q1930.95 1221.44 1929 1218.77 Q1927.06 1216.09 1923.68 1216.09 Q1920.3 1216.09 1918.36 1218.77 Q1916.43 1221.44 1916.43 1226.14 Z" fill="#000000" fill-rule="nonzero" fill-opacity="1" /><path clip-path="url(#clip170)" d="M1957.11 1203.06 L1957.11 1206.6 L1953.03 1206.6 Q1950.74 1206.6 1949.84 1207.52 Q1948.96 1208.45 1948.96 1210.86 L1948.96 1213.15 L1955.97 1213.15 L1955.97 1216.46 L1948.96 1216.46 L1948.96 1239.08 L1944.67 1239.08 L1944.67 1216.46 L1940.6 1216.46 L1940.6 1213.15 L1944.67 1213.15 L1944.67 1211.34 Q1944.67 1207.02 1946.69 1205.05 Q1948.7 1203.06 1953.08 1203.06 L1957.11 1203.06 Z" fill="#000000" fill-rule="nonzero" fill-opacity="1" /><path clip-path="url(#clip170)" d="M1970.9 1203.1 Q1967.8 1208.43 1966.3 1213.64 Q1964.79 1218.84 1964.79 1224.19 Q1964.79 1229.54 1966.3 1234.79 Q1967.82 1240.02 1970.9 1245.33 L1967.2 1245.33 Q1963.73 1239.89 1961.99 1234.63 Q1960.28 1229.38 1960.28 1224.19 Q1960.28 1219.03 1961.99 1213.8 Q1963.7 1208.57 1967.2 1203.1 L1970.9 1203.1 Z" fill="#000000" fill-rule="nonzero" fill-opacity="1" /><path clip-path="url(#clip170)" d="M1983.29 1235.19 L1983.29 1248.94 L1979 1248.94 L1979 1213.15 L1983.29 1213.15 L1983.29 1217.08 Q1984.63 1214.77 1986.67 1213.66 Q1988.73 1212.52 1991.57 1212.52 Q1996.3 1212.52 1999.23 1216.27 Q2002.2 1220.02 2002.2 1226.14 Q2002.2 1232.25 1999.23 1236 Q1996.3 1239.75 1991.57 1239.75 Q1988.73 1239.75 1986.67 1238.64 Q1984.63 1237.5 1983.29 1235.19 M1997.78 1226.14 Q1997.78 1221.44 1995.83 1218.77 Q1993.91 1216.09 1990.53 1216.09 Q1987.15 1216.09 1985.21 1218.77 Q1983.29 1221.44 1983.29 1226.14 Q1983.29 1230.83 1985.21 1233.52 Q1987.15 1236.18 1990.53 1236.18 Q1993.91 1236.18 1995.83 1233.52 Q1997.78 1230.83 1997.78 1226.14 Z" fill="#000000" fill-rule="nonzero" fill-opacity="1" /><path clip-path="url(#clip170)" d="M2019.86 1207.59 Q2016.25 1207.59 2014.42 1211.16 Q2012.61 1214.7 2012.61 1221.83 Q2012.61 1228.94 2014.42 1232.5 Q2016.25 1236.04 2019.86 1236.04 Q2023.49 1236.04 2025.3 1232.5 Q2027.13 1228.94 2027.13 1221.83 Q2027.13 1214.7 2025.3 1211.16 Q2023.49 1207.59 2019.86 1207.59 M2019.86 1203.89 Q2025.67 1203.89 2028.73 1208.5 Q2031.8 1213.08 2031.8 1221.83 Q2031.8 1230.56 2028.73 1235.16 Q2025.67 1239.75 2019.86 1239.75 Q2014.05 1239.75 2010.97 1235.16 Q2007.92 1230.56 2007.92 1221.83 Q2007.92 1213.08 2010.97 1208.5 Q2014.05 1203.89 2019.86 1203.89 Z" fill="#000000" fill-rule="nonzero" fill-opacity="1" /><path clip-path="url(#clip170)" d="M2038.75 1203.1 L2042.45 1203.1 Q2045.92 1208.57 2047.64 1213.8 Q2049.37 1219.03 2049.37 1224.19 Q2049.37 1229.38 2047.64 1234.63 Q2045.92 1239.89 2042.45 1245.33 L2038.75 1245.33 Q2041.83 1240.02 2043.33 1234.79 Q2044.86 1229.54 2044.86 1224.19 Q2044.86 1218.84 2043.33 1213.64 Q2041.83 1208.43 2038.75 1203.1 Z" fill="#000000" fill-rule="nonzero" fill-opacity="1" /><path clip-path="url(#clip170)" d="M1722.39 1294.37 L1862.6 1294.37 L1862.6 1252.9 L1722.39 1252.9 L1722.39 1294.37  Z" fill="#800000" fill-rule="evenodd" fill-opacity="0.2"/>
<polyline clip-path="url(#clip170)" style="stroke:#000000; stroke-linecap:round; stroke-linejoin:round; stroke-width:0.8; stroke-opacity:1; fill:none" points="1722.39,1294.37 1862.6,1294.37 1862.6,1252.9 1722.39,1252.9 1722.39,1294.37 "/>
<path clip-path="url(#clip170)" d="M1906.48 1265.98 L1906.48 1269.97 Q1904.68 1268.97 1902.85 1268.48 Q1901.04 1267.98 1899.19 1267.98 Q1895.05 1267.98 1892.75 1270.61 Q1890.46 1273.23 1890.46 1277.98 Q1890.46 1282.72 1892.75 1285.36 Q1895.05 1287.98 1899.19 1287.98 Q1901.04 1287.98 1902.85 1287.49 Q1904.68 1286.98 1906.48 1285.98 L1906.48 1289.92 Q1904.7 1290.75 1902.78 1291.17 Q1900.88 1291.59 1898.73 1291.59 Q1892.87 1291.59 1889.42 1287.91 Q1885.97 1284.23 1885.97 1277.98 Q1885.97 1271.63 1889.44 1268 Q1892.94 1264.36 1899 1264.36 Q1900.97 1264.36 1902.85 1264.78 Q1904.72 1265.17 1906.48 1265.98 Z" fill="#000000" fill-rule="nonzero" fill-opacity="1" /><path clip-path="url(#clip170)" d="M1930.95 1268.92 L1930.95 1254.9 L1935.21 1254.9 L1935.21 1290.92 L1930.95 1290.92 L1930.95 1287.03 Q1929.61 1289.34 1927.55 1290.48 Q1925.51 1291.59 1922.64 1291.59 Q1917.94 1291.59 1914.98 1287.84 Q1912.04 1284.09 1912.04 1277.98 Q1912.04 1271.86 1914.98 1268.11 Q1917.94 1264.36 1922.64 1264.36 Q1925.51 1264.36 1927.55 1265.5 Q1929.61 1266.61 1930.95 1268.92 M1916.43 1277.98 Q1916.43 1282.67 1918.36 1285.36 Q1920.3 1288.02 1923.68 1288.02 Q1927.06 1288.02 1929 1285.36 Q1930.95 1282.67 1930.95 1277.98 Q1930.95 1273.28 1929 1270.61 Q1927.06 1267.93 1923.68 1267.93 Q1920.3 1267.93 1918.36 1270.61 Q1916.43 1273.28 1916.43 1277.98 Z" fill="#000000" fill-rule="nonzero" fill-opacity="1" /><path clip-path="url(#clip170)" d="M1957.11 1254.9 L1957.11 1258.44 L1953.03 1258.44 Q1950.74 1258.44 1949.84 1259.36 Q1948.96 1260.29 1948.96 1262.7 L1948.96 1264.99 L1955.97 1264.99 L1955.97 1268.3 L1948.96 1268.3 L1948.96 1290.92 L1944.67 1290.92 L1944.67 1268.3 L1940.6 1268.3 L1940.6 1264.99 L1944.67 1264.99 L1944.67 1263.18 Q1944.67 1258.86 1946.69 1256.89 Q1948.7 1254.9 1953.08 1254.9 L1957.11 1254.9 Z" fill="#000000" fill-rule="nonzero" fill-opacity="1" /><path clip-path="url(#clip170)" d="M1970.9 1254.94 Q1967.8 1260.27 1966.3 1265.48 Q1964.79 1270.68 1964.79 1276.03 Q1964.79 1281.38 1966.3 1286.63 Q1967.82 1291.86 1970.9 1297.17 L1967.2 1297.17 Q1963.73 1291.73 1961.99 1286.47 Q1960.28 1281.22 1960.28 1276.03 Q1960.28 1270.87 1961.99 1265.64 Q1963.7 1260.41 1967.2 1254.94 L1970.9 1254.94 Z" fill="#000000" fill-rule="nonzero" fill-opacity="1" /><path clip-path="url(#clip170)" d="M1995.69 1265.75 L1995.69 1269.78 Q1993.89 1268.86 1991.94 1268.39 Q1990 1267.93 1987.92 1267.93 Q1984.74 1267.93 1983.15 1268.9 Q1981.57 1269.87 1981.57 1271.82 Q1981.57 1273.3 1982.71 1274.16 Q1983.84 1274.99 1987.27 1275.75 L1988.73 1276.08 Q1993.26 1277.05 1995.16 1278.83 Q1997.08 1280.59 1997.08 1283.76 Q1997.08 1287.37 1994.21 1289.48 Q1991.36 1291.59 1986.36 1291.59 Q1984.28 1291.59 1982.01 1291.17 Q1979.77 1290.78 1977.27 1289.97 L1977.27 1285.57 Q1979.63 1286.79 1981.92 1287.42 Q1984.21 1288.02 1986.46 1288.02 Q1989.47 1288.02 1991.09 1287 Q1992.71 1285.96 1992.71 1284.09 Q1992.71 1282.35 1991.53 1281.42 Q1990.37 1280.5 1986.41 1279.64 L1984.93 1279.3 Q1980.97 1278.46 1979.21 1276.75 Q1977.45 1275.01 1977.45 1272 Q1977.45 1268.35 1980.05 1266.36 Q1982.64 1264.36 1987.41 1264.36 Q1989.77 1264.36 1991.85 1264.71 Q1993.93 1265.06 1995.69 1265.75 Z" fill="#000000" fill-rule="nonzero" fill-opacity="1" /><path clip-path="url(#clip170)" d="M2026.04 1276.89 L2026.04 1278.97 L2006.46 1278.97 Q2006.73 1283.37 2009.1 1285.68 Q2011.48 1287.98 2015.72 1287.98 Q2018.17 1287.98 2020.46 1287.37 Q2022.78 1286.77 2025.04 1285.57 L2025.04 1289.6 Q2022.75 1290.57 2020.35 1291.08 Q2017.94 1291.59 2015.46 1291.59 Q2009.26 1291.59 2005.62 1287.98 Q2002.01 1284.36 2002.01 1278.21 Q2002.01 1271.84 2005.44 1268.11 Q2008.89 1264.36 2014.72 1264.36 Q2019.95 1264.36 2022.98 1267.74 Q2026.04 1271.1 2026.04 1276.89 M2021.78 1275.64 Q2021.73 1272.14 2019.81 1270.06 Q2017.92 1267.98 2014.77 1267.98 Q2011.2 1267.98 2009.05 1269.99 Q2006.92 1272 2006.6 1275.66 L2021.78 1275.64 Z" fill="#000000" fill-rule="nonzero" fill-opacity="1" /><path clip-path="url(#clip170)" d="M2054.58 1275.27 L2054.58 1290.92 L2050.32 1290.92 L2050.32 1275.41 Q2050.32 1271.73 2048.89 1269.9 Q2047.45 1268.07 2044.58 1268.07 Q2041.13 1268.07 2039.14 1270.27 Q2037.15 1272.47 2037.15 1276.26 L2037.15 1290.92 L2032.87 1290.92 L2032.87 1264.99 L2037.15 1264.99 L2037.15 1269.02 Q2038.68 1266.68 2040.74 1265.52 Q2042.82 1264.36 2045.53 1264.36 Q2050 1264.36 2052.29 1267.14 Q2054.58 1269.9 2054.58 1275.27 Z" fill="#000000" fill-rule="nonzero" fill-opacity="1" /><path clip-path="url(#clip170)" d="M2079.6 1265.75 L2079.6 1269.78 Q2077.8 1268.86 2075.85 1268.39 Q2073.91 1267.93 2071.83 1267.93 Q2068.66 1267.93 2067.06 1268.9 Q2065.48 1269.87 2065.48 1271.82 Q2065.48 1273.3 2066.62 1274.16 Q2067.75 1274.99 2071.18 1275.75 L2072.64 1276.08 Q2077.17 1277.05 2079.07 1278.83 Q2080.99 1280.59 2080.99 1283.76 Q2080.99 1287.37 2078.12 1289.48 Q2075.28 1291.59 2070.28 1291.59 Q2068.19 1291.59 2065.92 1291.17 Q2063.68 1290.78 2061.18 1289.97 L2061.18 1285.57 Q2063.54 1286.79 2065.83 1287.42 Q2068.12 1288.02 2070.37 1288.02 Q2073.38 1288.02 2075 1287 Q2076.62 1285.96 2076.62 1284.09 Q2076.62 1282.35 2075.44 1281.42 Q2074.28 1280.5 2070.32 1279.64 L2068.84 1279.3 Q2064.88 1278.46 2063.12 1276.75 Q2061.36 1275.01 2061.36 1272 Q2061.36 1268.35 2063.96 1266.36 Q2066.55 1264.36 2071.32 1264.36 Q2073.68 1264.36 2075.76 1264.71 Q2077.85 1265.06 2079.6 1265.75 Z" fill="#000000" fill-rule="nonzero" fill-opacity="1" /><path clip-path="url(#clip170)" d="M2107.47 1298.79 L2107.47 1302.1 L2082.85 1302.1 L2082.85 1298.79 L2107.47 1298.79 Z" fill="#000000" fill-rule="nonzero" fill-opacity="1" /><path clip-path="url(#clip170)" d="M2126.5 1268.97 Q2125.79 1268.55 2124.93 1268.37 Q2124.1 1268.16 2123.08 1268.16 Q2119.47 1268.16 2117.52 1270.52 Q2115.6 1272.86 2115.6 1277.26 L2115.6 1290.92 L2111.32 1290.92 L2111.32 1264.99 L2115.6 1264.99 L2115.6 1269.02 Q2116.94 1266.66 2119.1 1265.52 Q2121.25 1264.36 2124.33 1264.36 Q2124.77 1264.36 2125.3 1264.43 Q2125.83 1264.48 2126.48 1264.6 L2126.5 1268.97 Z" fill="#000000" fill-rule="nonzero" fill-opacity="1" /><path clip-path="url(#clip170)" d="M2142.75 1277.88 Q2137.59 1277.88 2135.6 1279.06 Q2133.61 1280.24 2133.61 1283.09 Q2133.61 1285.36 2135.09 1286.7 Q2136.6 1288.02 2139.16 1288.02 Q2142.71 1288.02 2144.84 1285.52 Q2146.99 1283 2146.99 1278.83 L2146.99 1277.88 L2142.75 1277.88 M2151.25 1276.12 L2151.25 1290.92 L2146.99 1290.92 L2146.99 1286.98 Q2145.53 1289.34 2143.35 1290.48 Q2141.18 1291.59 2138.03 1291.59 Q2134.05 1291.59 2131.69 1289.36 Q2129.35 1287.12 2129.35 1283.37 Q2129.35 1278.99 2132.27 1276.77 Q2135.21 1274.55 2141.02 1274.55 L2146.99 1274.55 L2146.99 1274.13 Q2146.99 1271.19 2145.04 1269.6 Q2143.12 1267.98 2139.63 1267.98 Q2137.41 1267.98 2135.3 1268.51 Q2133.19 1269.04 2131.25 1270.11 L2131.25 1266.17 Q2133.59 1265.27 2135.79 1264.83 Q2137.98 1264.36 2140.07 1264.36 Q2145.69 1264.36 2148.47 1267.28 Q2151.25 1270.2 2151.25 1276.12 Z" fill="#000000" fill-rule="nonzero" fill-opacity="1" /><path clip-path="url(#clip170)" d="M2181.57 1275.27 L2181.57 1290.92 L2177.31 1290.92 L2177.31 1275.41 Q2177.31 1271.73 2175.88 1269.9 Q2174.44 1268.07 2171.57 1268.07 Q2168.12 1268.07 2166.13 1270.27 Q2164.14 1272.47 2164.14 1276.26 L2164.14 1290.92 L2159.86 1290.92 L2159.86 1264.99 L2164.14 1264.99 L2164.14 1269.02 Q2165.67 1266.68 2167.73 1265.52 Q2169.81 1264.36 2172.52 1264.36 Q2176.99 1264.36 2179.28 1267.14 Q2181.57 1269.9 2181.57 1275.27 Z" fill="#000000" fill-rule="nonzero" fill-opacity="1" /><path clip-path="url(#clip170)" d="M2207.13 1277.65 Q2207.13 1273.02 2205.21 1270.48 Q2203.31 1267.93 2199.86 1267.93 Q2196.43 1267.93 2194.51 1270.48 Q2192.61 1273.02 2192.61 1277.65 Q2192.61 1282.26 2194.51 1284.8 Q2196.43 1287.35 2199.86 1287.35 Q2203.31 1287.35 2205.21 1284.8 Q2207.13 1282.26 2207.13 1277.65 M2211.39 1287.7 Q2211.39 1294.32 2208.45 1297.54 Q2205.51 1300.78 2199.44 1300.78 Q2197.2 1300.78 2195.21 1300.43 Q2193.22 1300.11 2191.34 1299.41 L2191.34 1295.27 Q2193.22 1296.29 2195.04 1296.77 Q2196.87 1297.26 2198.77 1297.26 Q2202.96 1297.26 2205.04 1295.06 Q2207.13 1292.88 2207.13 1288.46 L2207.13 1286.36 Q2205.81 1288.65 2203.75 1289.78 Q2201.69 1290.92 2198.82 1290.92 Q2194.05 1290.92 2191.13 1287.28 Q2188.22 1283.65 2188.22 1277.65 Q2188.22 1271.63 2191.13 1268 Q2194.05 1264.36 2198.82 1264.36 Q2201.69 1264.36 2203.75 1265.5 Q2205.81 1266.63 2207.13 1268.92 L2207.13 1264.99 L2211.39 1264.99 L2211.39 1287.7 Z" fill="#000000" fill-rule="nonzero" fill-opacity="1" /><path clip-path="url(#clip170)" d="M2242.34 1276.89 L2242.34 1278.97 L2222.75 1278.97 Q2223.03 1283.37 2225.39 1285.68 Q2227.78 1287.98 2232.01 1287.98 Q2234.47 1287.98 2236.76 1287.37 Q2239.07 1286.77 2241.34 1285.57 L2241.34 1289.6 Q2239.05 1290.57 2236.64 1291.08 Q2234.23 1291.59 2231.76 1291.59 Q2225.55 1291.59 2221.92 1287.98 Q2218.31 1284.36 2218.31 1278.21 Q2218.31 1271.84 2221.73 1268.11 Q2225.18 1264.36 2231.02 1264.36 Q2236.25 1264.36 2239.28 1267.74 Q2242.34 1271.1 2242.34 1276.89 M2238.08 1275.64 Q2238.03 1272.14 2236.11 1270.06 Q2234.21 1267.98 2231.06 1267.98 Q2227.5 1267.98 2225.34 1269.99 Q2223.22 1272 2222.89 1275.66 L2238.08 1275.64 Z" fill="#000000" fill-rule="nonzero" fill-opacity="1" /><path clip-path="url(#clip170)" d="M2248.65 1254.94 L2252.36 1254.94 Q2255.83 1260.41 2257.54 1265.64 Q2259.28 1270.87 2259.28 1276.03 Q2259.28 1281.22 2257.54 1286.47 Q2255.83 1291.73 2252.36 1297.17 L2248.65 1297.17 Q2251.73 1291.86 2253.24 1286.63 Q2254.77 1281.38 2254.77 1276.03 Q2254.77 1270.68 2253.24 1265.48 Q2251.73 1260.27 2248.65 1254.94 Z" fill="#000000" fill-rule="nonzero" fill-opacity="1" /><path clip-path="url(#clip170)" d="M1722.39 1346.21 L1862.6 1346.21 L1862.6 1304.74 L1722.39 1304.74 L1722.39 1346.21  Z" fill="#0000ff" fill-rule="evenodd" fill-opacity="0.2"/>
<polyline clip-path="url(#clip170)" style="stroke:#000000; stroke-linecap:round; stroke-linejoin:round; stroke-width:0.8; stroke-opacity:1; fill:none" points="1722.39,1346.21 1862.6,1346.21 1862.6,1304.74 1722.39,1304.74 1722.39,1346.21 "/>
<path clip-path="url(#clip170)" d="M1904.4 1317.59 L1904.4 1321.62 Q1902.59 1320.7 1900.65 1320.23 Q1898.7 1319.77 1896.62 1319.77 Q1893.45 1319.77 1891.85 1320.74 Q1890.28 1321.71 1890.28 1323.66 Q1890.28 1325.14 1891.41 1326 Q1892.55 1326.83 1895.97 1327.59 L1897.43 1327.92 Q1901.97 1328.89 1903.86 1330.67 Q1905.79 1332.43 1905.79 1335.6 Q1905.79 1339.21 1902.92 1341.32 Q1900.07 1343.43 1895.07 1343.43 Q1892.99 1343.43 1890.72 1343.01 Q1888.47 1342.62 1885.97 1341.81 L1885.97 1337.41 Q1888.33 1338.63 1890.62 1339.26 Q1892.92 1339.86 1895.16 1339.86 Q1898.17 1339.86 1899.79 1338.84 Q1901.41 1337.8 1901.41 1335.93 Q1901.41 1334.19 1900.23 1333.26 Q1899.07 1332.34 1895.12 1331.48 L1893.63 1331.14 Q1889.68 1330.3 1887.92 1328.59 Q1886.16 1326.85 1886.16 1323.84 Q1886.16 1320.19 1888.75 1318.2 Q1891.34 1316.2 1896.11 1316.2 Q1898.47 1316.2 1900.55 1316.55 Q1902.64 1316.9 1904.4 1317.59 Z" fill="#000000" fill-rule="nonzero" fill-opacity="1" /><path clip-path="url(#clip170)" d="M1934.74 1328.73 L1934.74 1330.81 L1915.16 1330.81 Q1915.44 1335.21 1917.8 1337.52 Q1920.18 1339.82 1924.42 1339.82 Q1926.87 1339.82 1929.17 1339.21 Q1931.48 1338.61 1933.75 1337.41 L1933.75 1341.44 Q1931.46 1342.41 1929.05 1342.92 Q1926.64 1343.43 1924.17 1343.43 Q1917.96 1343.43 1914.33 1339.82 Q1910.72 1336.2 1910.72 1330.05 Q1910.72 1323.68 1914.14 1319.95 Q1917.59 1316.2 1923.43 1316.2 Q1928.66 1316.2 1931.69 1319.58 Q1934.74 1322.94 1934.74 1328.73 M1930.49 1327.48 Q1930.44 1323.98 1928.52 1321.9 Q1926.62 1319.82 1923.47 1319.82 Q1919.91 1319.82 1917.75 1321.83 Q1915.62 1323.84 1915.3 1327.5 L1930.49 1327.48 Z" fill="#000000" fill-rule="nonzero" fill-opacity="1" /><path clip-path="url(#clip170)" d="M1963.29 1327.11 L1963.29 1342.76 L1959.03 1342.76 L1959.03 1327.25 Q1959.03 1323.57 1957.59 1321.74 Q1956.16 1319.91 1953.29 1319.91 Q1949.84 1319.91 1947.85 1322.11 Q1945.86 1324.31 1945.86 1328.1 L1945.86 1342.76 L1941.57 1342.76 L1941.57 1316.83 L1945.86 1316.83 L1945.86 1320.86 Q1947.38 1318.52 1949.44 1317.36 Q1951.53 1316.2 1954.24 1316.2 Q1958.7 1316.2 1960.99 1318.98 Q1963.29 1321.74 1963.29 1327.11 Z" fill="#000000" fill-rule="nonzero" fill-opacity="1" /><path clip-path="url(#clip170)" d="M1988.31 1317.59 L1988.31 1321.62 Q1986.5 1320.7 1984.56 1320.23 Q1982.61 1319.77 1980.53 1319.77 Q1977.36 1319.77 1975.76 1320.74 Q1974.19 1321.71 1974.19 1323.66 Q1974.19 1325.14 1975.32 1326 Q1976.46 1326.83 1979.88 1327.59 L1981.34 1327.92 Q1985.88 1328.89 1987.78 1330.67 Q1989.7 1332.43 1989.7 1335.6 Q1989.7 1339.21 1986.83 1341.32 Q1983.98 1343.43 1978.98 1343.43 Q1976.9 1343.43 1974.63 1343.01 Q1972.38 1342.62 1969.88 1341.81 L1969.88 1337.41 Q1972.24 1338.63 1974.54 1339.26 Q1976.83 1339.86 1979.07 1339.86 Q1982.08 1339.86 1983.7 1338.84 Q1985.32 1337.8 1985.32 1335.93 Q1985.32 1334.19 1984.14 1333.26 Q1982.98 1332.34 1979.03 1331.48 L1977.55 1331.14 Q1973.59 1330.3 1971.83 1328.59 Q1970.07 1326.85 1970.07 1323.84 Q1970.07 1320.19 1972.66 1318.2 Q1975.25 1316.2 1980.02 1316.2 Q1982.38 1316.2 1984.47 1316.55 Q1986.55 1316.9 1988.31 1317.59 Z" fill="#000000" fill-rule="nonzero" fill-opacity="1" /><path clip-path="url(#clip170)" d="M2016.18 1350.63 L2016.18 1353.94 L1991.55 1353.94 L1991.55 1350.63 L2016.18 1350.63 Z" fill="#000000" fill-rule="nonzero" fill-opacity="1" /><path clip-path="url(#clip170)" d="M2035.21 1320.81 Q2034.49 1320.39 2033.63 1320.21 Q2032.8 1320 2031.78 1320 Q2028.17 1320 2026.23 1322.36 Q2024.3 1324.7 2024.3 1329.1 L2024.3 1342.76 L2020.02 1342.76 L2020.02 1316.83 L2024.3 1316.83 L2024.3 1320.86 Q2025.65 1318.5 2027.8 1317.36 Q2029.95 1316.2 2033.03 1316.2 Q2033.47 1316.2 2034 1316.27 Q2034.54 1316.32 2035.18 1316.44 L2035.21 1320.81 Z" fill="#000000" fill-rule="nonzero" fill-opacity="1" /><path clip-path="url(#clip170)" d="M2051.46 1329.72 Q2046.29 1329.72 2044.3 1330.9 Q2042.31 1332.08 2042.31 1334.93 Q2042.31 1337.2 2043.79 1338.54 Q2045.3 1339.86 2047.87 1339.86 Q2051.41 1339.86 2053.54 1337.36 Q2055.69 1334.84 2055.69 1330.67 L2055.69 1329.72 L2051.46 1329.72 M2059.95 1327.96 L2059.95 1342.76 L2055.69 1342.76 L2055.69 1338.82 Q2054.23 1341.18 2052.06 1342.32 Q2049.88 1343.43 2046.73 1343.43 Q2042.75 1343.43 2040.39 1341.2 Q2038.05 1338.96 2038.05 1335.21 Q2038.05 1330.83 2040.97 1328.61 Q2043.91 1326.39 2049.72 1326.39 L2055.69 1326.39 L2055.69 1325.97 Q2055.69 1323.03 2053.75 1321.44 Q2051.83 1319.82 2048.33 1319.82 Q2046.11 1319.82 2044 1320.35 Q2041.9 1320.88 2039.95 1321.95 L2039.95 1318.01 Q2042.29 1317.11 2044.49 1316.67 Q2046.69 1316.2 2048.77 1316.2 Q2054.4 1316.2 2057.17 1319.12 Q2059.95 1322.04 2059.95 1327.96 Z" fill="#000000" fill-rule="nonzero" fill-opacity="1" /><path clip-path="url(#clip170)" d="M2090.28 1327.11 L2090.28 1342.76 L2086.02 1342.76 L2086.02 1327.25 Q2086.02 1323.57 2084.58 1321.74 Q2083.15 1319.91 2080.28 1319.91 Q2076.83 1319.91 2074.84 1322.11 Q2072.85 1324.31 2072.85 1328.1 L2072.85 1342.76 L2068.56 1342.76 L2068.56 1316.83 L2072.85 1316.83 L2072.85 1320.86 Q2074.37 1318.52 2076.43 1317.36 Q2078.52 1316.2 2081.23 1316.2 Q2085.69 1316.2 2087.98 1318.98 Q2090.28 1321.74 2090.28 1327.11 Z" fill="#000000" fill-rule="nonzero" fill-opacity="1" /><path clip-path="url(#clip170)" d="M2115.83 1329.49 Q2115.83 1324.86 2113.91 1322.32 Q2112.01 1319.77 2108.56 1319.77 Q2105.14 1319.77 2103.22 1322.32 Q2101.32 1324.86 2101.32 1329.49 Q2101.32 1334.1 2103.22 1336.64 Q2105.14 1339.19 2108.56 1339.19 Q2112.01 1339.19 2113.91 1336.64 Q2115.83 1334.1 2115.83 1329.49 M2120.09 1339.54 Q2120.09 1346.16 2117.15 1349.38 Q2114.21 1352.62 2108.15 1352.62 Q2105.9 1352.62 2103.91 1352.27 Q2101.92 1351.95 2100.04 1351.25 L2100.04 1347.11 Q2101.92 1348.13 2103.75 1348.61 Q2105.58 1349.1 2107.47 1349.1 Q2111.66 1349.1 2113.75 1346.9 Q2115.83 1344.72 2115.83 1340.3 L2115.83 1338.2 Q2114.51 1340.49 2112.45 1341.62 Q2110.39 1342.76 2107.52 1342.76 Q2102.75 1342.76 2099.84 1339.12 Q2096.92 1335.49 2096.92 1329.49 Q2096.92 1323.47 2099.84 1319.84 Q2102.75 1316.2 2107.52 1316.2 Q2110.39 1316.2 2112.45 1317.34 Q2114.51 1318.47 2115.83 1320.76 L2115.83 1316.83 L2120.09 1316.83 L2120.09 1339.54 Z" fill="#000000" fill-rule="nonzero" fill-opacity="1" /><path clip-path="url(#clip170)" d="M2151.04 1328.73 L2151.04 1330.81 L2131.46 1330.81 Q2131.73 1335.21 2134.1 1337.52 Q2136.48 1339.82 2140.72 1339.82 Q2143.17 1339.82 2145.46 1339.21 Q2147.78 1338.61 2150.04 1337.41 L2150.04 1341.44 Q2147.75 1342.41 2145.35 1342.92 Q2142.94 1343.43 2140.46 1343.43 Q2134.26 1343.43 2130.62 1339.82 Q2127.01 1336.2 2127.01 1330.05 Q2127.01 1323.68 2130.44 1319.95 Q2133.89 1316.2 2139.72 1316.2 Q2144.95 1316.2 2147.98 1319.58 Q2151.04 1322.94 2151.04 1328.73 M2146.78 1327.48 Q2146.73 1323.98 2144.81 1321.9 Q2142.91 1319.82 2139.77 1319.82 Q2136.2 1319.82 2134.05 1321.83 Q2131.92 1323.84 2131.6 1327.5 L2146.78 1327.48 Z" fill="#000000" fill-rule="nonzero" fill-opacity="1" /></svg>
